<svg width="71" height="30" viewBox="0 0 71 30" fill="none" xmlns="http://www.w3.org/2000/svg">
<path d="M13.7272 4.23905C12.9065 5.21692 11.599 5.9918 10.2937 5.87829C10.1213 4.55991 10.7717 3.14767 11.5226 2.27239C12.3411 1.27488 13.773 0.558934 14.9342 0.5C15.0717 1.87731 14.5326 3.23062 13.7272 4.23905ZM14.9211 6.13804C13.0243 6.02235 11.396 7.22723 10.4967 7.22723C9.57777 7.22723 8.20045 6.19479 6.7009 6.22971C4.75608 6.25373 2.93785 7.36475 1.94906 9.15242C-0.109271 12.7081 1.41429 17.9729 3.39186 20.8716C4.35881 22.3035 5.51567 23.8729 7.04141 23.8292C8.48421 23.7703 9.06482 22.8754 10.8045 22.8754C12.5659 22.8754 13.0658 23.8292 14.6025 23.7943C16.1806 23.7703 17.1803 22.3624 18.1472 20.9305C19.2495 19.3044 19.7035 17.711 19.7275 17.6324C19.7035 17.5975 16.6695 16.4275 16.6477 12.9024C16.6237 9.94475 19.0334 8.53688 19.136 8.45612C17.7827 6.41088 15.6458 6.19479 14.919 6.14022L14.9211 6.13804ZM25.8698 2.13488V23.6459H29.1767V16.2922H33.7495C37.9208 16.2922 40.8544 13.3935 40.8544 9.20917C40.8544 5.01611 37.9797 2.13706 33.863 2.13706L25.8698 2.13488ZM29.1767 4.95499H32.9856C35.8493 4.95499 37.4886 6.50038 37.4886 9.2179C37.4886 11.9354 35.8493 13.4939 32.9637 13.4939H29.1767V4.95499ZM46.8766 23.8052C48.9567 23.8052 50.8775 22.7488 51.755 21.0637H51.8249V23.6459H54.8807V12.9351C54.8807 9.84435 52.4273 7.83404 48.6402 7.83404C45.1391 7.83404 42.546 9.86836 42.4565 12.6535H45.4229C45.6739 11.3243 46.8788 10.4599 48.5507 10.4599C50.5741 10.4599 51.7004 11.4137 51.7004 13.1665V14.3474L47.586 14.5984C43.7421 14.8363 41.6729 16.4166 41.6729 19.18C41.6729 21.9652 43.812 23.8074 46.8788 23.8074L46.8766 23.8052ZM47.7759 21.2579C46.0122 21.2579 44.8881 20.4045 44.8881 19.0992C44.8881 17.7459 45.9685 16.9492 48.0247 16.8226L51.6983 16.5956V17.8114C51.6983 19.8261 50.0044 21.2579 47.7628 21.2579H47.7759ZM58.9624 29.5C62.1776 29.5 63.6925 28.2493 65.0108 24.4862L70.8082 8.04795H67.4555L63.5681 20.745H63.4982L59.6107 8.04795H56.1554L61.7498 23.7026L61.453 24.6565C60.94 26.2608 60.1237 26.8829 58.6678 26.8829C58.4058 26.8829 57.906 26.8501 57.7008 26.8283V29.4105C57.8929 29.4651 58.7136 29.4891 58.9515 29.4891L58.9624 29.5Z" fill="black"/>
</svg>
