<svg width="80" height="30" viewBox="0 0 80 30" fill="none" xmlns="http://www.w3.org/2000/svg">
<path d="M80.0026 6.66765L69.5602 30H66.3302L70.2102 21.835L63.3352 6.66515H66.7327L71.7077 18.2926H71.7727L76.5901 6.66515L80.0026 6.66765ZM36.6179 13.8826V23.335H33.3354V0.00269001H42.0204C44.0903 -0.0498096 46.0953 0.667686 47.6453 2.02018C49.1828 3.28267 50.0278 5.06766 50.0028 6.95515C50.0278 8.87013 49.1553 10.7051 47.6453 11.9026C46.1353 13.2301 44.2603 13.8826 42.0204 13.8826H36.6179ZM36.6054 2.88017V11.0176H42.1004C43.3104 11.0576 44.4953 10.6151 45.3428 9.82013C46.1903 9.06513 46.6578 8.03514 46.6578 6.96765C46.6578 5.88765 46.1878 4.85766 45.3428 4.11516C44.4703 3.28267 43.2979 2.84017 42.1004 2.87767L36.6054 2.88017ZM56.5778 6.66765C58.6603 6.66765 60.3152 7.25264 61.5252 8.41264C62.7352 9.57263 63.3352 11.1601 63.3352 13.1776V22.825H60.6277V20.6501H60.5102C59.3377 22.435 57.7878 23.3325 55.8478 23.3325C54.1803 23.3325 52.8003 22.825 51.6803 21.7951C50.5853 20.8326 49.9753 19.4251 50.0003 17.9676C50.0003 16.3526 50.5853 15.0651 51.7703 14.1001C52.9428 13.1501 54.5178 12.6676 56.4828 12.6676C58.1628 12.6676 59.5427 12.9926 60.6227 13.6301V12.9526C60.6352 11.9626 60.2052 11.0126 59.4627 10.3476C58.7203 9.65763 57.7428 9.26763 56.7278 9.28013C55.1528 9.28013 53.9028 9.97013 52.9778 11.3501L50.4903 9.73513C51.8578 7.69014 53.8878 6.66265 56.5703 6.66265L56.5778 6.66765ZM52.9203 18.0351C52.9078 18.7901 53.2578 19.4926 53.8578 19.9501C54.4828 20.4576 55.2653 20.7326 56.0578 20.7176C57.2428 20.7176 58.3878 20.2226 59.2353 19.3501C60.1327 18.5176 60.6427 17.3451 60.6427 16.1201C59.7577 15.3901 58.5328 15.0251 56.9578 15.0251C55.7978 15.0251 54.8478 15.3126 54.0803 15.8851C53.3128 16.4701 52.9203 17.1776 52.9203 18.0351ZM13.6105 0.00269001C16.9705 -0.0373097 20.2255 1.20018 22.713 3.48017L18.833 7.28265C17.413 5.96765 15.538 5.25016 13.6105 5.29016C10.1481 5.30266 7.08808 7.51764 5.96809 10.7851C5.39559 12.4376 5.39559 14.2351 5.96809 15.8901C7.08808 19.1576 10.1481 21.3726 13.6105 21.3851C15.4455 21.3851 17.023 20.9301 18.2455 20.1226C19.6655 19.1851 20.6555 17.7276 20.953 16.0601H13.608V10.9301H26.433C26.5905 11.8276 26.668 12.7276 26.668 13.6376C26.668 17.7001 25.183 21.1376 22.618 23.455C20.3655 25.4875 17.2805 26.67 13.608 26.67C8.49057 26.695 3.8031 23.8575 1.44562 19.3251C-0.481872 15.5626 -0.481872 11.1101 1.44562 7.34514C3.8031 2.81267 8.49057 -0.0248084 13.593 0.000191403L13.6105 0.00269001Z" fill="black"/>
</svg>
