<svg width="31" height="31" viewBox="0 0 31 31" fill="none" xmlns="http://www.w3.org/2000/svg">
<path d="M15.5 0C11.2864 0 10.7613 0.0203463 9.11223 0.090105C7.45643 0.17149 6.33642 0.428241 5.34817 0.811914C4.32892 1.21109 3.46081 1.74106 2.60336 2.60336C1.74009 3.46081 1.20528 4.32892 0.811914 5.34817C0.428241 6.33642 0.17149 7.45643 0.090105 9.11223C0.0155019 10.7622 0 11.2864 0 15.5C0 19.7136 0.0203463 20.2387 0.090105 21.8878C0.17149 23.5387 0.428241 24.6636 0.811914 25.6518C1.21109 26.6711 1.74106 27.5392 2.60336 28.3966C3.46081 29.2599 4.32892 29.7947 5.34817 30.1881C6.33642 30.5669 7.46128 30.8285 9.11223 30.9099C10.7622 30.9845 11.2864 31 15.5 31C19.7136 31 20.2388 30.9797 21.8878 30.9099C23.5387 30.8285 24.6636 30.5659 25.6518 30.1881C26.6711 29.7889 27.5392 29.2589 28.3966 28.3966C29.2599 27.5392 29.7947 26.6759 30.1881 25.6518C30.5669 24.6636 30.8285 23.5387 30.9099 21.8878C30.9845 20.2378 31 19.7136 31 15.5C31 11.2864 30.9797 10.7613 30.9099 9.11223C30.8285 7.46128 30.5659 6.3306 30.1881 5.34817C29.7889 4.32892 29.2589 3.46081 28.3966 2.60336C27.5392 1.74009 26.6759 1.20528 25.6518 0.811914C24.6636 0.428241 23.5387 0.17149 21.8878 0.090105C20.2378 0.0155019 19.7136 0 15.5 0ZM15.5 2.79035C19.6381 2.79035 20.1322 2.8107 21.7676 2.88045C23.2762 2.95118 24.0978 3.20309 24.6432 3.41624C25.3709 3.69818 25.8795 4.03147 26.4298 4.57598C26.9695 5.11564 27.3028 5.63011 27.5847 6.35773C27.7979 6.90321 28.0498 7.72481 28.1205 9.23334C28.1903 10.8688 28.2106 11.3639 28.2106 15.501C28.2106 19.638 28.1903 20.1331 28.1147 21.7686C28.0333 23.2771 27.7814 24.0987 27.5692 24.6442C27.2757 25.3718 26.9482 25.8805 26.4076 26.4308C25.8621 26.9705 25.3428 27.3038 24.621 27.5857C24.0823 27.7989 23.249 28.0508 21.7347 28.1215C20.0905 28.1912 19.6061 28.2116 15.4574 28.2116C11.3087 28.2116 10.8252 28.1912 9.17909 28.1157C7.67055 28.0343 6.83829 27.7824 6.29282 27.5702C5.55648 27.2766 5.05169 26.9492 4.51106 26.4085C3.96559 25.863 3.61873 25.3437 3.35133 24.6219C3.1343 24.0832 2.88627 23.25 2.80585 21.7357C2.75063 20.1109 2.72447 19.607 2.72447 15.4777C2.72447 11.3503 2.75063 10.8455 2.80585 9.2004C2.88627 7.68605 3.1343 6.85476 3.35133 6.31413C3.61873 5.57682 3.96656 5.07301 4.51106 4.52753C5.05073 3.98787 5.55648 3.63908 6.29282 3.36586C6.83829 3.15368 7.65021 2.90177 9.16455 2.8262C10.8087 2.7671 11.2932 2.74578 15.4361 2.74578L15.5 2.79035ZM15.5 7.5446C11.1004 7.5446 7.54266 11.1071 7.54266 15.5019C7.54266 19.9016 11.1052 23.4593 15.5 23.4593C19.8996 23.4593 23.4573 19.8967 23.4573 15.5019C23.4573 11.1023 19.8948 7.5446 15.5 7.5446ZM15.5 20.6689C12.6438 20.6689 10.333 18.3582 10.333 15.5019C10.333 12.6457 12.6438 10.3349 15.5 10.3349C18.3562 10.3349 20.667 12.6457 20.667 15.5019C20.667 18.3582 18.3562 20.6689 15.5 20.6689ZM25.6383 7.22681C25.6383 8.25672 24.8002 9.08801 23.7751 9.08801C22.7452 9.08801 21.9139 8.25575 21.9139 7.22681C21.9139 6.20271 22.751 5.36948 23.7751 5.36948C24.7992 5.36948 25.6383 6.20271 25.6383 7.22681Z" fill="black"/>
</svg>
