<svg width="1512" height="37" viewBox="0 0 1512 37" fill="none" xmlns="http://www.w3.org/2000/svg">
<path d="M116.798 6.29251H107.084V30.4558H116.798V21.5637H113.56V27.234H110.322V9.51428H113.56V15.1846H116.798V6.29251Z" fill="black"/>
<path fill-rule="evenodd" clip-rule="evenodd" d="M128.783 6.29251H119.069V30.4558H122.307V20.0173H125.545V30.4558H128.783V6.29251ZM125.545 9.51428V16.7955H122.307V9.51428H125.545Z" fill="black"/>
<path fill-rule="evenodd" clip-rule="evenodd" d="M140.768 6.29251H131.054V30.4558H134.292V19.9528C134.896 19.8884 135.544 19.738 136.235 19.5018L136.267 19.534C136.656 20.028 136.958 20.5864 137.174 21.2093C137.411 21.8107 137.53 22.3906 137.53 22.9491V30.4558H140.768V22.9491C140.768 22.047 140.606 21.1449 140.283 20.2428C139.959 19.3192 139.505 18.4601 138.922 17.6654C140.153 16.3552 140.768 14.7765 140.768 12.9294V6.29251ZM134.292 9.51428H137.53V12.9294C137.53 13.4234 137.433 13.8959 137.239 14.3469C137.066 14.798 136.818 15.1953 136.494 15.539C135.911 16.1833 135.177 16.57 134.292 16.6988V9.51428Z" fill="black"/>
<path d="M149.515 9.51428V15.1846H152.753V6.29251H143.039V15.99C143.039 16.5485 143.255 16.978 143.686 17.2787L149.515 21.5637V27.234H146.277V21.5637L143.039 19.1796V30.4558H152.753V20.8227C152.753 20.2857 152.537 19.8562 152.106 19.534L146.277 15.1846V9.51428H149.515Z" fill="black"/>
<path fill-rule="evenodd" clip-rule="evenodd" d="M164.738 6.29251H155.024V30.4558H158.262V19.9528C158.867 19.8884 159.525 19.738 160.237 19.5018C161.144 19.1581 161.954 18.6319 162.666 17.9231C162.796 17.7942 162.871 17.7083 162.893 17.6654C164.123 16.3552 164.738 14.7765 164.738 12.9294V6.29251ZM158.262 9.51428H161.5V12.9294C161.5 13.4234 161.403 13.8959 161.209 14.3469C161.036 14.798 160.788 15.1953 160.464 15.539C159.881 16.1833 159.147 16.57 158.262 16.6988V9.51428Z" fill="black"/>
<path fill-rule="evenodd" clip-rule="evenodd" d="M176.724 6.29251H167.009V30.4558H176.724V6.29251ZM173.485 9.51428V27.234H170.247V9.51428H173.485Z" fill="black"/>
<path fill-rule="evenodd" clip-rule="evenodd" d="M188.709 6.29251H178.994V30.4558H182.232V19.9528C182.837 19.8884 183.484 19.738 184.175 19.5018L184.208 19.534C184.596 20.028 184.898 20.5864 185.114 21.2093C185.352 21.8107 185.47 22.3906 185.47 22.9491V30.4558H188.709V22.9491C188.709 22.047 188.547 21.1449 188.223 20.2428C187.899 19.3192 187.446 18.4601 186.863 17.6654C188.093 16.3552 188.709 14.7765 188.709 12.9294V6.29251ZM182.232 9.51428H185.47V12.9294C185.47 13.4234 185.373 13.8959 185.179 14.3469C185.006 14.798 184.758 15.1953 184.434 15.539C183.851 16.1833 183.117 16.57 182.232 16.6988V9.51428Z" fill="black"/>
<path d="M199.075 9.51428V6.29251H190.979V9.51428H193.408V30.4558H196.646V9.51428H199.075Z" fill="black"/>
<path fill-rule="evenodd" clip-rule="evenodd" d="M100 0V37H206V0H100ZM103.036 33.9796V3.02041H202.964V33.9796H103.036Z" fill="black"/>
<path d="M472.383 24H474.234L470.164 12.7266H468.273L464.203 24H466.023L467.055 20.9531H471.352L472.383 24ZM469.18 14.6016H469.227L470.906 19.5469H467.5L469.18 14.6016ZM479.828 24.1875C482.422 24.1875 484.188 22.8203 484.617 20.4922H482.875C482.523 21.8516 481.406 22.6562 479.836 22.6562C477.766 22.6562 476.453 20.9922 476.453 18.3594C476.453 15.75 477.781 14.0703 479.828 14.0703C481.359 14.0703 482.562 15.0156 482.875 16.4609H484.609C484.312 14.1094 482.383 12.5391 479.828 12.5391C476.68 12.5391 474.664 14.7891 474.664 18.3594C474.664 21.9531 476.664 24.1875 479.828 24.1875ZM490.953 24.1875C493.547 24.1875 495.312 22.8203 495.742 20.4922H494C493.648 21.8516 492.531 22.6562 490.961 22.6562C488.891 22.6562 487.578 20.9922 487.578 18.3594C487.578 15.75 488.906 14.0703 490.953 14.0703C492.484 14.0703 493.688 15.0156 494 16.4609H495.734C495.438 14.1094 493.508 12.5391 490.953 12.5391C487.805 12.5391 485.789 14.7891 485.789 18.3594C485.789 21.9531 487.789 24.1875 490.953 24.1875ZM504.477 22.4844H499.07V18.9844H504.188V17.5312H499.07V14.2344H504.477V12.7266H497.32V24H504.477V22.4844ZM508.023 12.7266H506.273V20.0391C506.273 22.4688 508.008 24.1875 510.836 24.1875C513.664 24.1875 515.398 22.4688 515.398 20.0391V12.7266H513.656V19.8906C513.656 21.5 512.633 22.6328 510.836 22.6328C509.039 22.6328 508.023 21.5 508.023 19.8906V12.7266ZM519.227 24V12.7266H517.477V24H519.227ZM528.305 22.4844H523.055V12.7266H521.305V24H528.305V22.4844Z" fill="black"/>
<path d="M635.141 24L639.164 12.7266H637.297L634.219 22.0312H634.172L631.102 12.7266H629.203L633.227 24H635.141ZM645.227 12.5391C641.977 12.5391 639.945 14.7812 639.945 18.3672C639.945 21.9531 641.977 24.1875 645.227 24.1875C648.469 24.1875 650.508 21.9531 650.508 18.3672C650.508 14.7812 648.469 12.5391 645.227 12.5391ZM645.227 14.0781C647.367 14.0781 648.711 15.7344 648.711 18.3672C648.711 20.9922 647.367 22.6484 645.227 22.6484C643.086 22.6484 641.734 20.9922 641.734 18.3672C641.734 15.7344 643.086 14.0781 645.227 14.0781ZM653.93 24V12.7266H652.18V24H653.93ZM660.555 24V14.2344H664V12.7266H655.352V14.2344H658.805V24H660.555ZM667.18 12.7266H665.43V20.0391C665.43 22.4688 667.164 24.1875 669.992 24.1875C672.82 24.1875 674.555 22.4688 674.555 20.0391V12.7266H672.812V19.8906C672.812 21.5 671.789 22.6328 669.992 22.6328C668.195 22.6328 667.18 21.5 667.18 19.8906V12.7266ZM678.383 14.1953H680.789C682.141 14.1953 682.961 14.9609 682.961 16.2188C682.961 17.5078 682.188 18.25 680.836 18.25H678.383V14.1953ZM678.383 19.6641H680.789L683.086 24H685.102L682.578 19.3906C683.953 18.9297 684.766 17.6953 684.766 16.1719C684.766 14.0703 683.32 12.7266 681 12.7266H676.633V24H678.383V19.6641ZM693.617 22.4844H688.211V18.9844H693.328V17.5312H688.211V14.2344H693.617V12.7266H686.461V24H693.617V22.4844ZM694.914 20.8594C695.023 22.8984 696.711 24.1875 699.211 24.1875C701.883 24.1875 703.562 22.8672 703.562 20.7578C703.562 19.1094 702.602 18.1797 700.289 17.6328L699.047 17.3281C697.594 16.9688 697 16.5 697 15.7031C697 14.7031 697.93 14.0156 699.289 14.0156C700.648 14.0156 701.578 14.6953 701.68 15.8203H703.383C703.328 13.875 701.695 12.5391 699.312 12.5391C696.906 12.5391 695.211 13.875 695.211 15.8203C695.211 17.3906 696.172 18.3594 698.242 18.8594L699.703 19.2109C701.164 19.5703 701.781 20.0938 701.781 20.9688C701.781 21.9766 700.758 22.7109 699.336 22.7109C697.852 22.7109 696.766 21.9766 696.641 20.8594H694.914Z" fill="black"/>
<path d="M810.797 24.1875C813.391 24.1875 815.156 22.8203 815.586 20.4922H813.844C813.492 21.8516 812.375 22.6562 810.805 22.6562C808.734 22.6562 807.422 20.9922 807.422 18.3594C807.422 15.75 808.75 14.0703 810.797 14.0703C812.328 14.0703 813.531 15.0156 813.844 16.4609H815.578C815.281 14.1094 813.352 12.5391 810.797 12.5391C807.648 12.5391 805.633 14.7891 805.633 18.3594C805.633 21.9531 807.633 24.1875 810.797 24.1875ZM824.367 24H826.219L822.148 12.7266H820.258L816.188 24H818.008L819.039 20.9531H823.336L824.367 24ZM821.164 14.6016H821.211L822.891 19.5469H819.484L821.164 14.6016ZM830.461 24V14.2344H833.906V12.7266H825.258V14.2344H828.711V24H830.461ZM842.492 22.4844H837.086V18.9844H842.203V17.5312H837.086V14.2344H842.492V12.7266H835.336V24H842.492V22.4844ZM839.688 11.8203L841.742 9.51562H840.008L838.273 11.8203H839.688ZM854 19.3125V18.1641H849.359V19.5781H852.273V19.7734C852.25 21.4844 850.984 22.6562 849.156 22.6562C847.008 22.6562 845.672 20.9922 845.672 18.2969C845.672 15.6484 846.969 14.0703 849.125 14.0703C850.594 14.0703 851.695 14.875 852.117 16.2734H853.914C853.523 14.0234 851.625 12.5391 849.117 12.5391C845.906 12.5391 843.883 14.7578 843.883 18.3125C843.883 21.9297 845.914 24.1875 849.141 24.1875C852.195 24.1875 854 22.3672 854 19.3125ZM860.586 12.5391C857.336 12.5391 855.305 14.7812 855.305 18.3672C855.305 21.9531 857.336 24.1875 860.586 24.1875C863.828 24.1875 865.867 21.9531 865.867 18.3672C865.867 14.7812 863.828 12.5391 860.586 12.5391ZM860.586 14.0781C862.727 14.0781 864.07 15.7344 864.07 18.3672C864.07 20.9922 862.727 22.6484 860.586 22.6484C858.445 22.6484 857.094 20.9922 857.094 18.3672C857.094 15.7344 858.445 14.0781 860.586 14.0781ZM869.289 14.1953H871.695C873.047 14.1953 873.867 14.9609 873.867 16.2188C873.867 17.5078 873.094 18.25 871.742 18.25H869.289V14.1953ZM869.289 19.6641H871.695L873.992 24H876.008L873.484 19.3906C874.859 18.9297 875.672 17.6953 875.672 16.1719C875.672 14.0703 874.227 12.7266 871.906 12.7266H867.539V24H869.289V19.6641ZM879.117 24V12.7266H877.367V24H879.117ZM888.352 22.4844H882.945V18.9844H888.062V17.5312H882.945V14.2344H888.352V12.7266H881.195V24H888.352V22.4844ZM889.648 20.8594C889.758 22.8984 891.445 24.1875 893.945 24.1875C896.617 24.1875 898.297 22.8672 898.297 20.7578C898.297 19.1094 897.336 18.1797 895.023 17.6328L893.781 17.3281C892.328 16.9688 891.734 16.5 891.734 15.7031C891.734 14.7031 892.664 14.0156 894.023 14.0156C895.383 14.0156 896.312 14.6953 896.414 15.8203H898.117C898.062 13.875 896.43 12.5391 894.047 12.5391C891.641 12.5391 889.945 13.875 889.945 15.8203C889.945 17.3906 890.906 18.3594 892.977 18.8594L894.438 19.2109C895.898 19.5703 896.516 20.0938 896.516 20.9688C896.516 21.9766 895.492 22.7109 894.07 22.7109C892.586 22.7109 891.5 21.9766 891.375 20.8594H889.648Z" fill="black"/>
<path d="M1004.8 24.1875C1007.39 24.1875 1009.16 22.8203 1009.59 20.4922H1007.84C1007.49 21.8516 1006.38 22.6562 1004.8 22.6562C1002.73 22.6562 1001.42 20.9922 1001.42 18.3594C1001.42 15.75 1002.75 14.0703 1004.8 14.0703C1006.33 14.0703 1007.53 15.0156 1007.84 16.4609H1009.58C1009.28 14.1094 1007.35 12.5391 1004.8 12.5391C1001.65 12.5391 999.633 14.7891 999.633 18.3594C999.633 21.9531 1001.63 24.1875 1004.8 24.1875ZM1016.04 12.5391C1012.79 12.5391 1010.76 14.7812 1010.76 18.3672C1010.76 21.9531 1012.79 24.1875 1016.04 24.1875C1019.28 24.1875 1021.32 21.9531 1021.32 18.3672C1021.32 14.7812 1019.28 12.5391 1016.04 12.5391ZM1016.04 14.0781C1018.18 14.0781 1019.52 15.7344 1019.52 18.3672C1019.52 20.9922 1018.18 22.6484 1016.04 22.6484C1013.9 22.6484 1012.55 20.9922 1012.55 18.3672C1012.55 15.7344 1013.9 14.0781 1016.04 14.0781ZM1024.7 24V15.6953H1024.77L1030.61 24H1032.19V12.7266H1030.48V21.0391H1030.42L1024.58 12.7266H1022.99V24H1024.7ZM1038.82 24V14.2344H1042.27V12.7266H1033.62V14.2344H1037.07V24H1038.82ZM1049.49 24H1051.34L1047.27 12.7266H1045.38L1041.31 24H1043.13L1044.16 20.9531H1048.46L1049.49 24ZM1046.29 14.6016H1046.34L1048.02 19.5469H1044.61L1046.29 14.6016ZM1056.94 24.1875C1059.53 24.1875 1061.3 22.8203 1061.73 20.4922H1059.98C1059.63 21.8516 1058.52 22.6562 1056.95 22.6562C1054.88 22.6562 1053.56 20.9922 1053.56 18.3594C1053.56 15.75 1054.89 14.0703 1056.94 14.0703C1058.47 14.0703 1059.67 15.0156 1059.98 16.4609H1061.72C1061.42 14.1094 1059.49 12.5391 1056.94 12.5391C1053.79 12.5391 1051.77 14.7891 1051.77 18.3594C1051.77 21.9531 1053.77 24.1875 1056.94 24.1875ZM1067.37 24V14.2344H1070.81V12.7266H1062.16V14.2344H1065.62V24H1067.37Z" fill="black"/>
<path d="M1336.37 26.5562L1336.28 26.7359L1336.44 26.8598C1338.25 28.2976 1340.52 29.15 1343 29.15C1345.48 29.15 1347.75 28.2976 1349.56 26.8598L1349.72 26.7371L1349.64 26.5583C1349.47 26.199 1349.1 25.8762 1348.65 25.5968C1348.2 25.3125 1347.62 25.0526 1347 24.8324C1345.75 24.3926 1344.26 24.1 1343 24.1C1341.74 24.1 1340.25 24.3926 1339.01 24.8325C1338.38 25.0526 1337.81 25.3125 1337.35 25.5967C1336.9 25.8762 1336.54 26.1984 1336.37 26.5562ZM1351.07 24.9377L1351.28 25.1819L1351.47 24.9304C1352.82 23.1475 1353.65 20.9239 1353.65 18.5C1353.65 12.6289 1348.87 7.85 1343 7.85C1337.13 7.85 1332.35 12.6289 1332.35 18.5C1332.35 20.9239 1333.18 23.1475 1334.53 24.9304L1334.72 25.1819L1334.93 24.9377C1335.81 23.8651 1337.34 23.1259 1338.92 22.6559C1340.5 22.1879 1342.08 22 1343 22C1343.92 22 1345.5 22.1879 1347.08 22.6559C1348.66 23.1259 1350.19 23.8651 1351.07 24.9377ZM1330.25 18.5C1330.25 11.4621 1335.96 5.75 1343 5.75C1350.04 5.75 1355.75 11.4621 1355.75 18.5C1355.75 25.5379 1350.04 31.25 1343 31.25C1335.96 31.25 1330.25 25.5379 1330.25 18.5ZM1338.7 15.25C1338.7 12.8661 1340.62 10.95 1343 10.95C1345.38 10.95 1347.3 12.8661 1347.3 15.25C1347.3 17.6339 1345.38 19.55 1343 19.55C1340.62 19.55 1338.7 17.6339 1338.7 15.25ZM1340.8 15.25C1340.8 16.4671 1341.78 17.45 1343 17.45C1344.22 17.45 1345.2 16.4671 1345.2 15.25C1345.2 14.0329 1344.22 13.05 1343 13.05C1341.78 13.05 1340.8 14.0329 1340.8 15.25Z" fill="black" stroke="white" stroke-width="0.5"/>
<path d="M1406.96 18.3403L1406.96 18.3408C1406.56 19.0682 1405.79 19.55 1404.91 19.55H1395.23H1395.08L1395.01 19.6796L1393.58 22.2796L1393.37 22.65H1393.8H1409.14V24.75H1393.8C1392.01 24.75 1390.88 22.8368 1391.74 21.2593C1391.74 21.259 1391.74 21.2588 1391.74 21.2586L1393.5 18.088L1393.56 17.9758L1393.5 17.8599L1388.82 7.9929L1388.76 7.85H1388.6H1386.25V5.75H1390.09L1391.24 8.20631L1391.31 8.35H1391.47H1410.7C1411.5 8.35 1412 9.21078 1411.62 9.90178L1411.62 9.90328L1406.96 18.3403ZM1392.71 10.45H1392.31L1392.48 10.807L1395.56 17.307L1395.63 17.45H1395.79H1404.91H1405.06L1405.13 17.3208L1408.71 10.8208L1408.92 10.45H1408.49H1392.71ZM1391.46 28.9C1391.46 27.6063 1392.51 26.55 1393.8 26.55C1395.09 26.55 1396.15 27.608 1396.15 28.9C1396.15 30.192 1395.09 31.25 1393.8 31.25C1392.51 31.25 1391.46 30.1937 1391.46 28.9ZM1404.46 28.9C1404.46 27.6063 1405.5 26.55 1406.79 26.55C1408.08 26.55 1409.14 27.608 1409.14 28.9C1409.14 30.192 1408.08 31.25 1406.79 31.25C1405.5 31.25 1404.46 30.1937 1404.46 28.9Z" fill="black" stroke="white" stroke-width="0.5"/>
</svg>
