<svg width="26" height="30" viewBox="0 0 26 30" fill="none" xmlns="http://www.w3.org/2000/svg">
<path d="M7.36616 17.6371C7.13436 18.9073 6.21561 24.8283 5.94359 26.5018C5.92348 26.6214 5.8769 26.6669 5.7446 26.6669H0.810035C0.307264 26.6669 -0.0568476 26.2308 0.00983567 25.7471L3.88699 1.14414C3.98649 0.50906 4.55488 0.0263998 5.21007 0.0263998C15.2856 0.0263998 16.1324 -0.218105 18.7055 0.781085C22.6811 2.32221 23.0452 6.0406 21.6163 10.0628C20.1937 14.2045 16.8204 15.9838 12.3484 16.0367C9.4778 16.0833 7.75039 15.5731 7.36722 17.6371H7.36616ZM23.621 8.1173C23.5014 8.03157 23.4559 7.9977 23.422 8.20304C23.2897 8.95667 23.0844 9.69124 22.8399 10.4258C20.2 17.9547 12.8839 17.2995 9.31162 17.2995C8.90835 17.2995 8.64373 17.5175 8.59081 17.9208C7.09626 27.2088 6.79777 29.1469 6.79777 29.1469C6.73109 29.6168 7.02957 30 7.49847 30H11.6995C12.269 30 12.7379 29.583 12.8511 29.0146C12.8977 28.6579 12.7781 29.4178 13.8037 22.975C14.1086 21.5196 14.75 21.672 15.7418 21.672C20.4393 21.672 24.1037 19.7668 25.1949 14.2426C25.6247 11.9405 25.4998 9.51871 23.621 8.11624V8.1173Z" fill="black"/>
</svg>
