<svg width="37" height="30" viewBox="0 0 37 30" fill="none" xmlns="http://www.w3.org/2000/svg">
<path d="M36.9295 3.57439C35.5686 4.16955 34.1117 4.57901 32.5762 4.76471C34.1429 3.82699 35.3408 2.34371 35.912 0.576701C34.4424 1.43022 32.8167 2.04844 31.0881 2.39792C29.7098 0.926182 27.7396 0 25.5531 0C21.3617 0 17.9647 3.38754 17.9647 7.56286C17.9647 8.16378 18.0375 8.74048 18.1635 9.2872C11.8585 8.99308 6.26919 5.97116 2.53103 1.406C1.87428 2.51788 1.50081 3.80969 1.50081 5.21569C1.50081 7.8466 2.84322 10.1534 4.87244 11.5098C3.63178 11.474 2.46397 11.1315 1.44069 10.5675V10.6586C1.44069 14.3276 4.05381 17.3864 7.52256 18.083C6.89009 18.2503 6.21484 18.3472 5.52919 18.3472C5.04241 18.3472 4.57759 18.2999 4.11394 18.2145C5.08981 21.218 7.88331 23.4048 11.2133 23.4706C8.62447 25.4948 5.34303 26.7013 1.80722 26.7013C1.20481 26.7013 0.603563 26.6724 0 26.5998C3.37278 28.7451 7.35375 30 11.6538 30C25.6063 30 33.2306 18.4717 33.2306 8.48789C33.2306 8.16955 33.2306 7.84544 33.2063 7.52018C34.6944 6.46251 35.9825 5.12226 37 3.60323L36.9295 3.57439Z" fill="black"/>
</svg>
