<svg width="95" height="30" viewBox="0 0 95 30" fill="none" xmlns="http://www.w3.org/2000/svg">
<path d="M69.1398 1.68506C67.6179 1.11765 65.23 0.5 62.2747 0.5C54.7181 0.5 49.378 4.3182 49.3455 9.78248C49.2834 13.7987 53.1312 16.0624 56.0391 17.4159C59.0269 18.802 60.0258 19.6649 60.011 20.8943C59.9962 22.7886 57.6232 23.6338 55.4392 23.6338C52.4042 23.6338 50.7581 23.2201 48.2195 22.1562L47.2768 21.7099L46.2011 28.0224C48.0481 28.776 51.358 29.4379 54.7743 29.5C62.8244 29.5 68.073 25.7143 68.1321 19.8777C68.1941 16.6771 66.1343 14.2479 61.7457 12.2442C59.0978 10.9528 57.4399 10.0721 57.4399 8.74814C57.4399 7.57786 58.8555 6.34847 61.8108 6.34847C64.3493 6.30118 66.1373 6.85677 67.5351 7.40941L68.2591 7.73153L69.3201 1.65255L69.1398 1.68506ZM88.7835 1.02308H82.8729C81.0259 1.02308 79.6546 1.51661 78.839 3.34887L67.479 29.0981H75.5143L77.1338 24.8809L86.9364 24.8957C87.1817 25.8798 87.8732 29.0951 87.8732 29.0951H94.9688L88.7835 1.02308ZM38.4642 0.792571H46.1154L41.3278 28.8794H33.6767L38.4642 0.777794V0.792571ZM19.0097 16.2604L19.7928 20.1702L27.2874 1.02308H35.3996L23.3303 29.0508H15.2535L8.63375 5.31708C8.49486 4.90334 8.32641 4.62259 7.90971 4.38026C5.67849 3.20998 3.16947 2.25543 0.400391 1.59345L0.492004 1.00535H12.8361C14.5 1.06741 15.8535 1.59345 16.3145 3.37843L19.0097 16.2752V16.2604ZM79.3148 19.1388L82.3794 11.2749C82.3321 11.3488 83.0089 9.65836 83.3931 8.59447L83.9161 11.0089L85.6893 19.1211H79.3148V19.1388Z" fill="black"/>
</svg>
